<?xml version="1.0" encoding="utf-8"?>
<!-- Generator: Adobe Illustrator 21.1.0, SVG Export Plug-In . SVG Version: 6.00 Build 0)  -->
<svg version="1.1" id="Layer_1" xmlns="http://www.w3.org/2000/svg" xmlns:xlink="http://www.w3.org/1999/xlink" x="0px" y="0px"
	 viewBox="0 0 28 25" style="enable-background:new 0 0 28 25;" xml:space="preserve">
<style type="text/css">
	.st0{fill:#DA251C;}
</style>
<g>
	<path class="st0" d="M6,19v-7c0-1.7,1.3-3,3-3h8V7h-4c-1.1,0-2-0.9-2-2V0H1C0.4,0,0,0.5,0,1v23c0,0.5,0.5,1,1,1h15c0.6,0,1-0.4,1-1
		v-2H9C7.3,22,6,20.7,6,19z"/>
	<path class="st0" d="M12,13h-2v2h2c0.6,0,1-0.4,1-1C13,13.4,12.6,13,12,13z"/>
	<path class="st0" d="M13,6h3.7L12,0.5V5C12,5.5,12.5,6,13,6z"/>
	<path class="st0" d="M18,13h-2v5h2c0.6,0,1-0.4,1-1v-3C19,13.4,18.6,13,18,13z"/>
	<path class="st0" d="M26,10H9c-1.1,0-2,0.9-2,2v7c0,1.1,0.9,2,2,2h17c1.1,0,2-0.9,2-2v-7C28,10.9,27.1,10,26,10z M12,16h-2v3H9v-5
		v-2h3c1.1,0,2,0.9,2,2C14,15.1,13.1,16,12,16z M20,17c0,1.1-0.9,2-2,2h-3v-7h3c1.1,0,2,0.9,2,2V17z M26,13h-4v2h3v1h-3v3h-1v-7h5
		V13z"/>
</g>
</svg>
