<?xml version="1.0" encoding="utf-8"?>
<!-- Generator: Adobe Illustrator 21.1.0, SVG Export Plug-In . SVG Version: 6.00 Build 0)  -->
<svg version="1.1" id="Layer_1" xmlns="http://www.w3.org/2000/svg" xmlns:xlink="http://www.w3.org/1999/xlink" x="0px" y="0px"
	 viewBox="0 0 43 43" style="enable-background:new 0 0 43 43;" xml:space="preserve">
<style type="text/css">
	.st0{fill:#00A64F;}
	.st1{fill:#FFFFFF;}
</style>
<circle class="st0" cx="21.5" cy="21.5" r="21.5"/>
<path class="st1" d="M32.1,8.5c0.3,0.2,0.5,0.6,0.4,1l-3.9,23.3c-0.1,0.3-0.2,0.5-0.5,0.7c-0.1,0.1-0.3,0.1-0.5,0.1
	c-0.1,0-0.2,0-0.4-0.1l-6.9-2.8l-3.7,4.5c-0.2,0.2-0.4,0.3-0.7,0.3c-0.1,0-0.2,0-0.3-0.1c-0.2-0.1-0.3-0.2-0.5-0.4S15,34.7,15,34.5
	v-5.3l13.1-16.1l-16.2,14l-6-2.5c-0.4-0.1-0.6-0.4-0.6-0.8c0-0.4,0.1-0.7,0.5-0.9L31,8.4c0.2-0.1,0.3-0.1,0.5-0.1
	C31.7,8.3,31.9,8.3,32.1,8.5z"/>
</svg>
