<?xml version="1.0" encoding="utf-8"?>
<!-- Generator: Adobe Illustrator 21.1.0, SVG Export Plug-In . SVG Version: 6.00 Build 0)  -->
<svg version="1.1" id="Слой_1" xmlns="http://www.w3.org/2000/svg" xmlns:xlink="http://www.w3.org/1999/xlink" x="0px" y="0px"
	 viewBox="0 0 40.1 40.1" style="enable-background:new 0 0 40.1 40.1;" xml:space="preserve">
<style type="text/css">
	.st0{fill:#C8C8C8;}
	.st1{fill:none;stroke:#C8C8C8;stroke-width:1.7941;stroke-linecap:round;stroke-linejoin:round;stroke-miterlimit:10;}
</style>
<g>
	<path class="st0" d="M39,13c0.5,0,1-0.4,1-1V5.7C40,2.6,37.5,0,34.3,0H5.7C2.5,0,0,2.6,0,5.7v28.7c0,3.1,2.5,5.7,5.7,5.7h28.7
		c3.1,0,5.7-2.5,5.7-5.7V20.6c0-0.6-0.5-1-1-1s-1,0.4-1,1v12.8h-36V5.7c0-2,1.7-3.7,3.7-3.7h28.7c2,0,3.7,1.6,3.7,3.7V12
		C38.2,12.6,38.6,13,39,13z M37.8,35.3c-0.4,1.5-1.9,2.7-3.5,2.7H5.7c-1.7,0-3.1-1.1-3.5-2.7H37.8z"/>
</g>
<g>
	<g>
		<path class="st1" d="M20,6.1c-6.4,0-11.6,5.2-11.6,11.6S13.6,29.3,20,29.3s11.6-5.2,11.6-11.6S26.5,6.1,20,6.1L20,6.1z"/>
	</g>
	<path class="st1" d="M27.6,8.9c0,0-6.4,4-5.6,10.8c0.6,4.8,5.8,6.5,5.8,6.5"/>
	<path class="st1" d="M11.5,9.9c0,0,1.5,3.1,1.5,8.8c0,4.5-1.7,6.2-1.7,6.2"/>
	<path class="st1" d="M8.9,16.7c0,0,3.1,3,11.2,3s11.3-3,11.3-3"/>
	<path class="st1" d="M20.4,6.3c0,0-3.3,3.8-3.3,11.3c0,7.5,3,11.4,3,11.4"/>
</g>
</svg>
