<?xml version="1.0" encoding="utf-8"?>
<!-- Generator: Adobe Illustrator 21.1.0, SVG Export Plug-In . SVG Version: 6.00 Build 0)  -->
<svg version="1.1" id="Layer_1" xmlns="http://www.w3.org/2000/svg" xmlns:xlink="http://www.w3.org/1999/xlink" x="0px" y="0px"
	 viewBox="0 0 434.8 378.4" style="enable-background:new 0 0 434.8 378.4;" xml:space="preserve">
<style type="text/css">
	.st0{fill-rule:evenodd;clip-rule:evenodd;fill:#009EE0;}
	.st1{fill-rule:evenodd;clip-rule:evenodd;fill:#00407B;}
	.st2{fill-rule:evenodd;clip-rule:evenodd;fill:#EC6E01;}
	.st3{fill-rule:evenodd;clip-rule:evenodd;fill:#FFFFFF;}
	.st4{fill:#CD162C;}
</style>
<path class="st0" d="M295.8,24.7C234-18.6,148.8-3.5,105.5,58.3c-43.3,61.8-28.3,147,33.5,190.3c2.9,2,5.9,3.9,8.9,5.7l163.1-18
	c6.7-6.3,12.9-13.4,18.3-21.2C372.6,153.2,357.6,68,295.8,24.7"/>
<path class="st1" d="M292.6,29.3C233.3-12.3,151.6,2.1,110,61.4c-41.5,59.3-27.1,141,32.2,182.6c59.3,41.5,141,27.1,182.6-32.2
	C366.3,152.5,351.9,70.8,292.6,29.3"/>
<path class="st2" d="M230.4,98.4c-9-12.6-20.4-23.6-33.3-32.1c-3.6,3.5-7,7.1-10.2,10.8c-3.7,4.2-7.6,9.2-11.6,14.8
	c5.8,1.1,11.3,0.3,17.1-2.2c3.4-1.5,6.9-2.9,10.4-4.3c-1,4.5-2.1,10.1-4,14.3c-0.8,1.8-0.9,1.1,1.1,2.4c6.7,4.1,11.5,8.1,16.5,14.2
	C220.5,108.5,224.3,104.2,230.4,98.4 M342.4,125.7c-0.7-7.6-2.1-15.2-4.2-22.8c-1.9-6.7-9.1-17.5-13.9-22.8
	c-17.5-19.2-40.5-21.5-64.7-24.5c-11.3-1.4-22.6-2.8-33.1-6.1c-2.1-0.6-4.1-1.3-6.2-2c-6.8,4.4-13.3,9.4-19.2,14.8
	c9,6.1,17.4,13.4,24.7,21.5c6.4,0.7,12.2,2.9,19.1,1.9c4.1-0.6,7.6-1.9,11.1-4c1.8-1.2,3.8-2.1,5.9-2.8c9.2-2.7,18.9-0.4,25.5,6.7
	c0.8,0.9,1.2,0.6,2.5,1.1c9.3,3.2,14.6,13.5,11.9,22.9l-0.2,0.6l-2.1,6.5l-6-3.3c-2-1.1-4.8-2.4-7.1-2.3c-3,0.2-6.4,1.2-8.6,3.4
	c-14.4,15.1-6.8,41.1,14,45.8c7.6,1.7,15.3,0.6,22.5-2.1c11.7-4.4,18.6-13.4,23.9-24.4C339.8,131.2,341.1,128.4,342.4,125.7z
	 M154.3,126.5c-7.1,13.9-13.4,28.8-17.6,43.4c-0.8,2.6-1.4,5.3-2.1,7.9c1.1,0,2.3,0,3.4,0c14.3-0.5,26.8-8.9,29-23.7
	C168.6,144.3,163.8,131,154.3,126.5z M93.3,118.2c-1.3,8.9-1.6,17.8-1.1,26.7c2.3,3.9,4.6,7.8,6.9,11.7c3.8,6.5,11.3,13.4,18,16.8
	c3.9,2,7.8,3.2,11.9,3.9c0.7-2.9,1.4-5.9,2.3-8.9c4.1-14.4,10.3-29.2,17.3-43c-5,0.2-8.1,3.7-12.6,7.3c-1.5,1.2-0.8,1.2-2.3-1.5
	c-3.3-5.9-5.3-10.3-3.7-17.3c1.2-5.6,5.2-10.1,10.3-12.5c2.7-4.8,6.9-8.4,11.8-10.5c-8.8-2.9-18.7-4.3-28-2.5
	c-9.3,1.9-18.1,7.1-24.6,17.4c-2.2,3.5-4.1,7.6-5.8,12.4L93.3,118.2z M128.2,48.4c-4.9,5-9.5,10.4-13.6,16.3
	c-7.5,10.7-13.1,22.2-16.9,34c7-9,15.9-13.8,25.2-15.7c10.6-2.1,21.7-0.5,31.4,2.8c2.7,0.9,5.3,2,7.8,3.1c0.6,0,1.3,0.1,1.9,0.1
	c1.8,0.2,3.6,0.6,5.4,1.2c4.5-6.4,8.9-12.1,13-16.8c3-3.5,6.2-6.9,9.6-10.2C172.8,51.7,150.5,45.8,128.2,48.4z M185.4,15.3
	c-18.5,4.9-35.9,13.9-50.7,26.9c21.7-0.9,43,5.6,61.6,17c5.5-5,11.3-9.8,17.6-14c-4.3-1.7-8.4-3.6-12.1-5.6
	c-5.6-3.1-10.3-6.6-13.3-10.6C185.4,24.8,184.1,20.3,185.4,15.3z M273.9,24.6C248,11.5,219,8.2,191.9,13.8c-0.4,0.8-0.7,1.5-0.9,2.2
	c-1.1,3.4-0.2,6.6,2,9.5c2.5,3.3,6.6,6.4,11.5,9.1c4.5,2.5,9.8,4.8,15.2,6.7c3.7-2.3,7.6-4.4,11.5-6.3
	C244.3,28.9,258.6,25,273.9,24.6z M289.4,33.9c-1.8-1.2-3.6-2.4-5.4-3.6l0,0.2c-18.3-1.5-35.2,2.5-50.3,9.7
	c-2.4,1.1-4.7,2.3-6.9,3.6c0.5,0.2,1,0.3,1.5,0.5c10,3.1,21,4.5,32.2,5.8c23.9,3,48.4,6,67,26.1C318.5,59.9,305.7,45.3,289.4,33.9z"
	/>
<path class="st1" d="M216.4,116.2c4.3-8.1,8.2-12.4,14.8-18.6c-2.4-3.2-6.8-10.4-8.2-13.9c7.6,0.2,14,3.3,22,2.1
	c4.1-0.6,7.6-1.9,11.1-4c1.8-1.2,3.8-2.1,5.9-2.8c9.2-2.7,18.9-0.4,25.5,6.7c0.8,0.9,1.2,0.6,2.5,1.1c9.3,3.2,14.6,13.5,11.9,22.9
	l-0.2,0.6l-2.1,6.5l-6-3.3c-2-1.1-4.8-2.4-7.1-2.3c-3,0.2-6.4,1.2-8.6,3.4c-14.4,15.1-6.8,41.1,14,45.8c7.6,1.7,15.3,0.6,22.5-2.1
	c11.7-4.4,18.6-13.4,23.9-24.4c2.5-5.3,5.1-10.6,7.6-15.9c1,7.9,2.1,15.9,2.9,23.8c0.3,2.7-1.1,12.9-1.6,15.9
	c-3.2,19.7-10.7,37.8-22,54.1C283.9,271.1,202,285.5,142.8,244c-28-19.6-47-49-53.5-82.5c-1-8.8-1.9-17.6-2.9-26.4
	c4.2,7.2,8.4,14.4,12.6,21.6c3.8,6.5,11.3,13.4,18,16.8c6.7,3.4,13.5,4.6,20.9,4.4c14.3-0.5,26.8-8.9,29-23.7
	c1.6-10.3-3.8-24.4-14.2-28.2c-7.8-2.2-11.3,2.2-17,6.7c-1.5,1.2-0.8,1.2-2.3-1.5c-3.3-5.9-5.3-10.3-3.7-17.3
	c1.2-5.6,5.2-10.1,10.3-12.5c4.8-8.4,14.2-13.3,23.9-12.3c2.2,0.2,4.3,0.7,6.4,1.5c7.6,2.7,14.4,2.3,21.8-0.9
	c3.4-1.5,6.9-2.9,10.4-4.3c-1,4.5-2.1,10.1-4,14.3c-0.8,1.8-0.9,1.1,1.1,2.4C206.5,106.2,211.4,110.2,216.4,116.2"/>
<path class="st3" d="M167.5,102.4c-0.8-0.2-1.6-0.3-2.4-0.3c-2.1-0.1-4,0.3-5.8,1c0.2,0.3,0.3,0.7,0.4,1c0.2,1.5-0.7,2.9-2.2,3.1
	c-1.2,0.2-2.3-0.4-2.8-1.4c-0.8-0.8-1.8-1.4-2.9-1.8c2.6-2.2,5.9-3.5,9.6-3.4C163.6,100.9,165.7,101.4,167.5,102.4 M261.5,92.7
	c0.7-0.3,1.5-0.6,2.3-0.8c2-0.5,4-0.5,5.9-0.2c-0.1,0.3-0.2,0.7-0.2,1.1c0.1,1.5,1.3,2.6,2.8,2.6c1.2,0,2.2-0.8,2.5-1.9
	c0.7-0.9,1.5-1.7,2.4-2.4c-3-1.7-6.5-2.2-10.1-1.4C264.9,90.4,263,91.4,261.5,92.7z M217.6,127.8c-6.4-11.2-16.5-20-28.5-24.8
	c2.6-2.1,4.6-5,5.6-8.2c-8.2,3.9-17.6,4.3-26.1,1.1c-1.6-0.6-3.3-1-5-1.2c-8.2-0.8-16,3.7-19.4,11.2c-4.4,1.3-7.8,4.8-8.8,9.2
	c-0.7,3.4-0.4,6.8,1.2,9.8c5.6-4.6,10.7-6.6,18-4.4c11.6,3.8,18.6,18.4,18.4,30c-0.1,6.2-1.9,11.7-5.1,17.1
	c-9.4,14.7-26.9,18.1-43.1,14.4c-13.4-3.1-22.8-11.3-30-21.7c6,30.9,23.4,59.6,51.2,79c56.7,39.7,135,25.9,174.8-30.8
	c14.2-20.3,21.6-43.5,22.6-66.6c-0.1-1.5-0.3-3-0.5-4.4c-7.9,16.4-20.9,28-42.4,29.2c-17.8,0.4-31.7-10.2-35-27.8
	c-1.9-9.9,1.5-21.2,8.5-28.4c3.2-3.2,7.8-4.7,12.2-5.1c3.4-0.1,7,1.3,10.1,3c1-3.1,0.6-7-0.8-9.9c-2-4.1-6-6.9-10.6-7.2
	c-4.8-6.7-13.4-9.5-21.3-7c-1.6,0.5-3.2,1.2-4.6,2.2c-7.7,4.8-17,6.4-25.8,4.3c1.7,3,4.1,5.4,7.2,6.9
	C229.6,104.9,221.6,115.5,217.6,127.8z"/>
<path class="st0" d="M187.4,114.7c0.4,0.2,0.9,0.4,1.3,0.6c23.8,14.7,25.8,39,17.1,59c0.6-0.7,1.2-1.4,1.8-2.2
	c6.5-8.9,7.7-22.4,4.4-32.8c-3.1-9.7-9.9-17.7-19-22.4C191.1,116.1,189.3,115.3,187.4,114.7"/>
<path class="st0" d="M265.8,115.1c-0.3,0.3-0.5,0.7-0.8,1c-13.8,21.5-5.9,42.2,9.1,55.3c-0.8-0.3-1.6-0.7-2.3-1.1
	c-8.8-4.8-15.2-15.4-16.5-25.2c-1.2-9.2,1.2-18.5,6.9-25.9C263.3,117.7,264.5,116.3,265.8,115.1"/>
<path class="st4" d="M164.6,374.2l-15.3-37.3c-0.3-0.8-0.5-1.6-0.5-2.5c0-1.4,0.5-2.5,1.6-3.4c1.1-0.9,2.3-1.4,3.8-1.4
	c1.2,0,2.1,0.3,2.9,0.9c0.8,0.6,1.4,1.4,1.9,2.4l10.9,27.9l10.9-27.9c0.5-1,1.1-1.8,1.9-2.4c0.7-0.6,1.7-0.9,2.9-0.9
	c1.4,0,2.6,0.4,3.8,1.3c1.1,0.9,1.6,2.1,1.6,3.5c0,0.9-0.2,1.7-0.5,2.5l-15.3,37.3c-0.6,1.3-1.3,2.3-2,2.9c-0.7,0.6-1.8,0.9-3.2,0.9
	c-1.4,0-2.5-0.4-3.3-1.1C165.7,376.3,165.1,375.3,164.6,374.2 M191.9,353.8c0-7.1,2.2-12.9,6.7-17.6c4.5-4.7,10.3-7,17.4-7
	c6.9,0,12.7,2.4,17.2,7.2c4.6,4.8,6.9,10.6,6.9,17.5c0,7.1-2.2,12.9-6.7,17.6c-4.5,4.7-10.3,7-17.4,7c-7.1,0-12.9-2.3-17.4-7
	C194.2,366.7,191.9,360.8,191.9,353.8z M229.3,353.8c0-4.3-1.1-7.9-3.4-10.9c-2.3-3-5.5-4.5-9.7-4.5c-4.2,0-7.4,1.5-9.7,4.4
	c-2.3,2.9-3.5,6.6-3.5,11c0,4.4,1.2,8.1,3.5,11c2.3,2.9,5.6,4.4,9.8,4.4c4.2,0,7.4-1.5,9.7-4.4C228.1,361.8,229.3,358.2,229.3,353.8
	z M244.7,372.1v-37.4c0-1.7,0.5-2.9,1.4-3.9c1-0.9,2.2-1.4,3.8-1.4c1.5,0,2.7,0.4,3.7,1.3c1,0.9,1.5,2.2,1.5,3.9v33.6h12.5
	c1.6,0,2.8,0.5,3.8,1.4c0.8,1,1.3,2.2,1.3,3.4c0,1.2-0.5,2.2-1.4,3.1c-0.9,0.9-2.1,1.3-3.6,1.3h-17.6c-1.7,0-3-0.5-4-1.5
	C245.2,375.1,244.7,373.8,244.7,372.1z M275.5,372.8v-38.1c0-1.7,0.5-2.9,1.4-3.9c1-0.9,2.2-1.4,3.8-1.4c1.5,0,2.7,0.4,3.7,1.3
	c1,0.9,1.5,2.2,1.5,3.9v38.1c0,1.6-0.5,2.9-1.4,3.9c-1,0.9-2.2,1.4-3.8,1.4c-1.5,0-2.7-0.4-3.8-1.3
	C276,375.8,275.5,374.5,275.5,372.8z"/>
<path class="st0" d="M60.8,289.4l-0.3,2.5l-15.2,14.3L0,311.6l10.9-77.3L4.8,235L9,204.8c65.9-7.9,131.7-15.7,197.5-23.6l23.7-21
	l13,16.6c30.1-3.6,55.7-6.6,89.4-10.6l5.1,5.3l7.5-6.8l3.6-0.4c28.7-3.4,57.4-6.9,86.1-10.3l-5.1,36l-22.1,2.6l-5.8,41l4.7-0.6
	l-4.3,30.2l-41.9,5l2.1-14.8l-28.4,3.4l-7.3-5.5l-7.4,7.3c-47.1,5.6-77.9,9.3-125.1,14.9l-5.6-5.5l-7,7l-32.5,3.9l-5.3-5.5l-7.1,7
	C111.4,283.3,86.1,286.4,60.8,289.4"/>
<path class="st3" d="M128.8,214.6l-6.1,43l3.6-0.4l6.1-43L128.8,214.6z M34.5,259.4l-3.4,24.1l3.5-0.4l3.8-27.1L34.5,259.4z
	 M39.2,225.7l-1.7,11.9l4-3.5l1.2-8.9L39.2,225.7z M379.2,204.3l1.9-13.7l-22.1,2.6l0.8-5.7l-4.8,0.6l-1.5,10.4l15.4-1.7
	L379.2,204.3z M239.2,214.2l-19.6,2.5l1.8-12.8l-3.3,0.4l-6,42.8l3.3-0.4l3.3-23.2l19.6-2.2L239.2,214.2z M331.2,224.1l19.1-2.3
	l-1.1,8l7.2-0.6L358,218l-18.3,1.9l-7.1-5.6L331.2,224.1z M311.1,225.8l1.5-10.8l0.9-6.6l2.2-15.9l-5,0.8l-2.2,15.5l-0.5,3.9
	l-1.6,11l-1.1,7.6l-0.7,5.1l5-0.8l0.3-2.2L311.1,225.8z M99.4,272.5l-8.1,8.1L63.3,284l-6.1-6.4l-1.8,12.7l-11.6,10.8l-37.7,4.5
	L17,228.3l-6.1,0.7l2.8-19.6l44-5.2l6.5,6.4l1-7.2l21.7-2.8L78.1,263l3.9-0.5l8.8-62.3l56.5-6.7l5.8,6.2l1-6.8l21.7-2.8l-8.8,62.3
	l3.9-0.5l8.8-62.3l21.7-2.6l-1,7.1l27.8-26.2l9.1,10.1l-5,5l3.6-0.2l7,6.3l1-7.2l19.1-2.4l7,20.9l3.1-22.1l21.3-2.5l-1,7l8.2-7.9
	l27.6-3.3l6.9,7.2l10.1-9.2l1.5-0.2c25.7-3.1,51.3-6.1,77-9.2l3.7-0.4l-3.6,25.5l-22.1,2.6l-7.3,51.5l4.7-0.6l-2.8,19.6l-31.2,3.7
	l2.8-19.6l4.9-0.6l0.6-4.2l-12.9,10.5l-25.2,3l-9.4-7l-9.5,9.3l-27.4,3.3l-6.2-6.2l-1,7l-18.5,2.2l-7.2-22.5l-3.4,23.8l-21.5,2.6
	l1-7.1l-8.4,8l-27.7,3.3l-7.6-7.5l-9.5,9.5l-27.9,3.3l-7.2-7.5l-9.7,9.5l-36.8,4.4L99.4,272.5z"/>
<path class="st1" d="M31,258.2l12.2-10.8l-5.5,38.9l-10.9,1.3L31,258.2z M36,222.5l10.9-1.3l-2,14.1l-12.3,10.8L36,222.5z
	 M93.9,203.4l-8.8,62.3L73.8,267l8.8-62.3l-14.3,1.8l-9.4,66.8l6.5,6.8l24.8-3l8.6-8.6l9.4-66.9L93.9,203.4z M125.6,211.4l11-1.2
	l-7.1,50.2l-11,1.3L125.6,211.4z M113.1,201.1l-10.5,74.5l31.6-3.8l8.7-8.5l8.4-59.5l-6.2-6.6L113.1,201.1z M182.7,192.8l-8.8,62.3
	l-11.3,1.3l8.8-62.3l-14.3,1.8l-9.4,66.7l6.5,6.8l24.8-3l8.6-8.6l9.4-66.9L182.7,192.8z M307.6,189.9l11.9-1.7l-7.1,50.1l-11.9,1.7
	L307.6,189.9z M302.6,178.5l-8.8,8.5l-8.4,59.5l6.7,6.6l25.5-3.3l8.6-8.4l8.4-59.5l-6.4-6.7L302.6,178.5z M255.9,220.3l11.4,35.7
	l12.4-1.5l10.5-74.6l-13.9,1.7l-5,35.5L260,183.6l-13,1.6l-10.5,74.5l14.1-1.7L255.9,220.3z M233.7,186.7l7.4,6.6l-2.4,17.4
	l-14.8,1.9l1.8-12.8l-10.7,1.2l-7.1,50.1l10.7-1.3l3.3-23.2l14.8-1.7l-3.9,27.9l-8.9,8.5l-24.7,2.9l-6.9-6.8l8.3-59.3l8.8-8.5
	C226.9,187.5,214.5,189,233.7,186.7z M408.7,177.8l-0.8,5.7l14.8-1.8l2.6-18.2c-25.7,3.1-51.3,6.1-77,9.2l-9.2,8.4l-4,28.5l7.6,6
	l20.3-2.2l-2.6,18.5l-14.2,1.5l1.1-8l-14.7,1.8l-1.9,13.4l8.7,6.5l22.6-2.7l14.1-12l3.3-24.7l-11-7.6l-17.8,2l2.5-17.7l12.2-1.4
	l-0.8,5.7l14.8-1.8l0.8-5.7l7.3-0.9l-9.1,64.5l-4.9,0.6l-1.7,12.4l23.8-2.8l1.7-12.4l-4.7,0.6l9.1-64.5L408.7,177.8z M16.8,212.6
	L15.1,225l6.1-0.7l-10.9,77.3l32.6-3.9l9.1-8.5l6.1-43.5l-5.5-5.3l7.2-7.1l2.6-18.4l-6.8-6.8L16.8,212.6z M227.1,172.8l-13.4,12.6
	l13.6-1.6l5.1-5L227.1,172.8z"/>
<path class="st1" d="M228.3,287.9l1.1-0.1c0.6-0.1,0.8,0.2,0.7,0.7l-0.5,4.1c-0.1,0.5-0.4,0.8-0.9,0.9l-1.1,0.1L228.3,287.9z
	 M231.4,279.4l-0.5,3.8c-0.1,0.5-0.4,0.8-0.9,0.9l-1.1,0.1l0.7-5.4l1.1-0.1C231.2,278.6,231.4,278.8,231.4,279.4z M233.2,285.3
	c1.3-0.6,2.1-1.6,2.4-3.6l0.4-3.4c0.4-2.8-0.9-4-3.7-3.7l-6.8,0.8l-3,22.6l6.8-0.8c2.9-0.3,4.5-1.9,4.8-4.7l0.6-4.6
	C235,286.3,234.5,285.5,233.2,285.3z M223.3,275.7l-4.6,0.5l-2.4,18.1c-0.1,0.6-0.4,0.8-0.9,0.9l-0.5,0.1c-0.6,0.1-0.8-0.2-0.7-0.7
	l2.4-18.1L212,277l-2.5,18.6c-0.4,2.8,0.9,4,3.7,3.7l2.8-0.3c2.9-0.3,4.5-1.9,4.8-4.7L223.3,275.7z M202.3,278.1l-3,22.6l7.9-0.9
	l0.5-4l-3.3,0.4l2.5-18.6L202.3,278.1z M194,291.6l-0.7,5.5c-0.1,0.6-0.4,0.8-0.9,0.9l-0.6,0.1c-0.6,0.1-0.8-0.2-0.7-0.7l1.8-13.6
	c0.1-0.5,0.4-0.8,0.9-0.9l0.5-0.1c0.6-0.1,0.8,0.2,0.7,0.7l-0.6,4.8l4.5-0.5l0.7-5.3c0.4-2.8-0.9-4-3.7-3.7l-2.8,0.3
	c-2.9,0.3-4.5,1.9-4.8,4.7l-1.9,14.6c-0.4,2.8,0.9,4,3.7,3.7l2.8-0.3c2.9-0.3,4.5-1.9,4.8-4.7l0.8-6L194,291.6z M174.7,281.4
	l-3,22.6l7.9-0.9l0.5-4l-3.3,0.4l2.5-18.6L174.7,281.4z M164.9,282.5l-3,22.6l7.9-0.9l0.5-4l-3.3,0.4l2.5-18.6L164.9,282.5z
	 M156.2,288.9l-0.3,9.8l-2.1,0.2L156.2,288.9z M160.3,283.1l-6.3,0.7l-6,23l4.2-0.5l0.8-3.3l2.9-0.3l-0.1,3.3l4.6-0.5L160.3,283.1z
	 M141.3,298.1l1.1-0.1c0.6-0.1,0.8,0.2,0.7,0.7l-0.5,4.1c-0.1,0.5-0.4,0.8-0.9,0.9l-1.1,0.1L141.3,298.1z M144.3,289.5l-0.5,3.8
	c-0.1,0.5-0.4,0.8-0.9,0.9l-1.1,0.1l0.7-5.4l1.1-0.1C144.2,288.8,144.4,289,144.3,289.5z M146.2,295.5c1.3-0.6,2.1-1.6,2.4-3.6
	l0.4-3.4c0.4-2.8-0.9-4-3.7-3.7l-6.8,0.8l-3,22.6l6.8-0.8c2.9-0.3,4.5-1.9,4.8-4.7l0.6-4.6C148,296.5,147.5,295.7,146.2,295.5z
	 M130.9,308.8l2.5-18.6l2.8-0.3l0.5-4l-10.2,1.2l-0.5,4l2.8-0.3l-2.5,18.6L130.9,308.8z M116.3,288.2l-3,22.6l8.6-1l0.5-4l-4,0.5
	l0.7-5.4l3.8-0.4l0.5-4l-3.8,0.4l0.7-5.1l3.9-0.5l0.5-4L116.3,288.2z M111.8,311l-1.4-11.2l4.5-11.5l-4.8,0.6l-4,10.9l1.4-10.6
	l-4.6,0.5l-3,22.6l4.6-0.5l1.4-10.7l0.9,10.4L111.8,311z M97.8,301.1l-3.6-2.4c-0.5-0.3-0.7-0.7-0.6-1.4l0.3-2.1
	c0.1-0.5,0.4-0.8,0.9-0.9l0.4,0c0.6-0.1,0.8,0.2,0.7,0.7l-0.5,3.7l4.5-0.5l0.6-4.1c0.4-2.8-0.9-4-3.7-3.7l-2.5,0.3
	c-2.9,0.3-4.5,1.9-4.8,4.7l-0.5,3.6c-0.2,1.6,0.1,2.5,1.4,3.3l3.6,2.4c0.5,0.3,0.7,0.7,0.6,1.4l-0.4,2.7c-0.1,0.6-0.4,0.8-0.9,0.9
	l-0.4,0c-0.6,0.1-0.8-0.2-0.7-0.7l0.6-4.4l-4.5,0.5l-0.6,4.8c-0.4,2.8,0.9,4,3.7,3.7l2.6-0.3c2.9-0.3,4.5-1.9,4.8-4.7l0.6-4.2
	C99.4,302.8,99,301.9,97.8,301.1z M81.5,297.7l-0.3,9.8l-2.1,0.2L81.5,297.7z M85.6,291.8l-6.3,0.7l-6,23l4.2-0.5l0.8-3.3l2.9-0.3
	l-0.1,3.3l4.6-0.5L85.6,291.8z M66.6,306.8l1.1-0.1c0.6-0.1,0.8,0.2,0.7,0.7l-0.5,4.1c-0.1,0.5-0.4,0.8-0.9,0.9l-1.1,0.1L66.6,306.8
	z M69.6,298.3l-0.5,3.8c-0.1,0.5-0.4,0.8-0.9,0.9l-1.1,0.1l0.7-5.4l1.1-0.1C69.5,297.5,69.7,297.7,69.6,298.3z M71.5,304.2
	c1.3-0.6,2.1-1.6,2.4-3.6l0.4-3.4c0.4-2.8-0.9-4-3.7-3.7l-6.8,0.8l-3,22.6l6.8-0.8c2.9-0.3,4.5-1.9,4.8-4.7l0.6-4.6
	C73.3,305.2,72.8,304.4,71.5,304.2z"/>
<path class="st1" d="M348.6,266.5l-0.3,9.8l-2.1,0.2L348.6,266.5z M352.7,260.6l-6.3,0.7l-6,23l4.2-0.5l0.8-3.3l2.9-0.3l-0.1,3.3
	l4.6-0.5L352.7,260.6z M335.8,275l-0.7,5.5c-0.1,0.5-0.4,0.8-0.9,0.9l-0.6,0.1c-0.6,0.1-0.8-0.2-0.7-0.7l1.8-13.6
	c0.1-0.5,0.4-0.8,0.9-0.9l0.5-0.1c0.6-0.1,0.8,0.2,0.7,0.7l-0.6,4.8l4.5-0.5l0.7-5.3c0.4-2.8-0.9-4-3.7-3.7l-2.8,0.3
	c-2.9,0.3-4.5,1.9-4.8,4.7l-1.9,14.6c-0.4,2.8,0.9,4,3.7,3.7l2.8-0.3c2.9-0.3,4.5-1.9,4.8-4.7l0.8-6L335.8,275z M328.5,263.4
	l-4.6,0.5l-3,22.6l4.6-0.5L328.5,263.4z M316.4,269.5l-0.6,4.7c-0.1,0.5-0.4,0.8-0.9,0.9l-1.1,0.1l0.8-6.3l1.1-0.1
	C316.3,268.7,316.5,268.9,316.4,269.5z M318.1,276.4c1.3-0.6,2.2-1.7,2.4-3.6l0.6-4.4c0.4-2.8-0.9-4-3.7-3.7l-6.9,0.8l-3,22.6
	l4.6-0.5l1.1-8.6l1.1-0.1c0.6-0.1,0.8,0.2,0.7,0.7l-1,7.8l4.6-0.5l1-7.8C319.9,277.4,319.4,276.6,318.1,276.4z M303.1,270.8
	l-1.8,13.6c-0.1,0.6-0.4,0.8-0.9,0.9l-0.7,0.1c-0.6,0.1-0.8-0.2-0.7-0.7l1.8-13.6c0.1-0.5,0.4-0.8,0.9-0.9l0.7-0.1
	C303,270,303.2,270.2,303.1,270.8z M305.8,284.4l1.9-14.6c0.4-2.8-0.9-4-3.7-3.7l-3,0.3c-2.9,0.3-4.5,1.9-4.8,4.7l-1.9,14.6
	c-0.4,2.8,0.9,4,3.7,3.7l3-0.3C303.9,288.7,305.5,287.2,305.8,284.4z M288.4,281.5l-0.6,4.5c-0.1,0.6-0.4,0.8-0.9,0.9l-0.8,0.1
	c-0.6,0.1-0.8-0.2-0.7-0.7l1.8-13.6c0.1-0.5,0.4-0.8,0.9-0.9l0.7-0.1c0.6-0.1,0.8,0.2,0.7,0.7l-0.5,3.8l4.5-0.5l0.6-4.3
	c0.4-2.8-0.9-4-3.7-3.7l-2.9,0.3c-2.9,0.3-4.5,1.9-4.8,4.7l-1.9,14.6c-0.4,2.8,0.9,4,3.7,3.7l3-0.3c2.9-0.3,4.5-1.9,4.8-4.7l1.2-8.8
	l-5.9,0.7l-0.5,3.8L288.4,281.5z M273.8,273.6l0.9-0.1c0.9-0.1,1.2,0.2,1.1,1.1l-1.6,12.4c-0.1,0.9-0.6,1.3-1.4,1.4l-0.9,0.1
	L273.8,273.6z M266.7,292.9l6.5-0.8c3.3-0.4,5.1-2.2,5.6-5.4l1.7-12.9c0.4-3.3-1-4.7-4.3-4.3l-6.5,0.8L266.7,292.9z M262.3,275.6
	l-1.8,13.6c-0.1,0.6-0.4,0.8-0.9,0.9l-0.7,0.1c-0.6,0.1-0.8-0.2-0.7-0.7l1.8-13.6c0.1-0.5,0.4-0.8,0.9-0.9l0.7-0.1
	C262.1,274.8,262.4,275,262.3,275.6z M265,289.2l1.9-14.6c0.4-2.8-0.9-4-3.7-3.7l-3,0.3c-2.9,0.3-4.5,1.9-4.8,4.7l-1.9,14.6
	c-0.4,2.8,0.9,4,3.7,3.7l3-0.3C263,293.5,264.6,292,265,289.2z M248.9,277.3l-0.7,5.4c-0.1,0.6-0.4,0.8-0.9,0.9l-1,0.1l0.9-7l1-0.1
	C248.8,276.5,249,276.8,248.9,277.3z M245.8,287.6l2.1-0.2c2.9-0.3,4.5-1.9,4.8-4.7l0.8-6.4c0.4-2.8-0.9-4-3.7-3.7l-6.7,0.8l-3,22.6
	l4.6-0.5L245.8,287.6z"/>
<path class="st1" d="M434.6,145.3l-3.5,0.4l-0.6,4.3l3.5-0.4L434.6,145.3z M427.3,139.8c-0.2,0.1-0.6,0.2-1,0.3
	c-0.5,0.1-0.6-0.1-0.6-0.6l0.7-4.4c0.1-0.5,0.3-0.7,0.8-0.8l0.3,0c0.5-0.1,0.6,0.1,0.6,0.6L427.3,139.8z M425.5,147.5l-0.4,0
	c-0.5,0.1-0.6-0.1-0.6-0.6l0.3-2l-3.6,0.4l-0.4,2.5c-0.4,2.4,0.6,3.5,2.9,3.2l2.1-0.3c2.3-0.3,3.6-1.6,4-4.1l1.9-12.7
	c0.4-2.4-0.6-3.5-2.9-3.2l-2.1,0.3c-2.3,0.3-3.6,1.6-4,4.1l-0.8,5.6c-0.3,1.9,0.6,3.1,2.5,2.9l0.1,0c0.8-0.1,1.6-0.4,2.3-0.8
	l-0.6,3.9C426.2,147.2,426,147.4,425.5,147.5z M414,145.8l3.2-8.6l-1.2,8.4L414,145.8z M410.6,149.5l4.8-0.6l-0.4,3l3.4-0.4l0.4-3
	l1.4-0.2l0.5-3.4l-1.4,0.2l2-13.2l-5.1,0.6l-5,13L410.6,149.5z M407.2,142.2c-0.2,0.1-0.6,0.2-1,0.3c-0.5,0.1-0.6-0.1-0.6-0.6
	l0.7-4.4c0.1-0.5,0.3-0.7,0.8-0.8l0.3,0c0.5-0.1,0.6,0.1,0.6,0.6L407.2,142.2z M405.4,149.9l-0.4,0c-0.5,0.1-0.6-0.1-0.6-0.6l0.3-2
	l-3.6,0.4l-0.4,2.5c-0.4,2.4,0.6,3.5,2.9,3.2l2.1-0.3c2.3-0.3,3.6-1.6,4-4.1l1.9-12.6c0.4-2.4-0.6-3.5-2.9-3.2l-2.1,0.3
	c-2.3,0.3-3.6,1.6-4,4.1l-0.8,5.6c-0.3,1.9,0.6,3.1,2.5,2.9l0.1,0c0.8-0.1,1.6-0.4,2.3-0.8l-0.6,3.9
	C406.1,149.6,405.8,149.9,405.4,149.9z M401.9,134.2l-2.7,0.3l-0.4,0.5c-0.8,1-1.4,1.4-2.6,1.7l-0.4,2.7l1.8-0.2l-2.2,15.1l3.7-0.4
	L401.9,134.2z M394.6,150.1l-3.5,0.4l-0.6,4.3l3.5-0.4L394.6,150.1z M388.3,155.1l2.4-16.1l2.3-0.3l0.5-3.5l-8.3,1l-0.5,3.5l2.3-0.3
	l-2.4,16.1L388.3,155.1z M381.7,145.9l-2.8-2.1c-0.4-0.3-0.5-0.6-0.5-1.2l0.3-1.8c0.1-0.5,0.3-0.7,0.8-0.8l0.3,0
	c0.5-0.1,0.6,0.1,0.6,0.6l-0.5,3.2l3.7-0.4l0.5-3.6c0.4-2.4-0.6-3.5-2.9-3.2l-2,0.2c-2.3,0.3-3.6,1.6-4,4.1l-0.5,3.1
	c-0.2,1.4,0,2.2,1,2.9l2.8,2.1c0.4,0.3,0.5,0.6,0.5,1.2l-0.3,2.4c-0.1,0.5-0.3,0.7-0.8,0.8l-0.3,0c-0.5,0.1-0.6-0.1-0.6-0.6l0.6-3.8
	l-3.7,0.4l-0.6,4.2c-0.4,2.4,0.6,3.5,2.9,3.2l2.1-0.3c2.3-0.3,3.6-1.6,4-4.1l0.5-3.6C383,147.4,382.7,146.6,381.7,145.9z
	 M367.6,138.4l-2.9,19.6l7-0.8l0.5-3.5l-3.3,0.4l0.7-4.7l3.1-0.4l0.5-3.5l-3.1,0.4l0.7-4.4l3.2-0.4l0.5-3.5L367.6,138.4z"/>
<path class="st0" d="M65.3,276.4l1.1,1.1l22.7-2.7l7.4-7.4l8.8-62.9l-1.3,0.2l-8.7,61.6l-7.4,7.4L65.3,276.4z M71.1,268.6l8.6-61
	l-1.3,0.2l-8.6,61L71.1,268.6z M123.4,209.1l14.8-1.6l0.2-1.3l-16.1,1.8l-7.8,55.5l1.3-0.2L123.4,209.1z M105.7,271.5l-0.2,1.3
	l27.5-3.3l7.5-7.3l8.1-57.4l-1.1-1.1l-8.1,57.4l-7.5,7.3L105.7,271.5z M154.1,265.7l1.1,1.1l22.7-2.7l7.4-7.4l8.8-62.8l-1.3,0.2
	l-8.7,61.6l-7.4,7.4L154.1,265.7z M159.9,258l8.6-61l-1.3,0.2l-8.6,61L159.9,258z M305.4,187.6l14.7-1.8l0.2-1.3l-16,1.9l-7.8,55.2
	l1.3-0.2L305.4,187.6z M288.1,245.6L288.1,245.6l4.9,4.9l22.3-2.7l7.4-7.3l8.1-57.5l-4.7-4.9l0,0l3.6,3.8l-8.1,57.5l-7.4,7.3
	l-22.3,2.7L288.1,245.6z M239.6,255.6l-0.2,1.3l9-1.1l6.3-45l-0.9-2.8l-6.6,46.6L239.6,255.6z M271.3,225.3l-13-39l-0.7,0.1
	l13.5,40.5L271.3,225.3z M269,253.3l8.4-1l9.8-69.4l-1.3,0.2l-9.6,68.2l-7.7,0.9L269,253.3z M226.9,208.4l-0.2,1.3l9.7-1.2l2-14.1
	l-1.1-1l-2,14L226.9,208.4z M205.1,252.7l7.6-54l14.6-1.7l0.2-1.3l-15.9,1.8l-7.8,55.3L205.1,252.7z M195,256.5L195,256.5l5.1,5.1
	l22.6-2.7l7.6-7.3l3.3-23.8l-1.3,0.1l-3.2,22.5l-7.6,7.3l-22.6,2.7L195,256.5z M388.5,245.2l9.6-68.3l11.1-1.4l0.2-1.3l-12.4,1.6
	l-9.8,69.6L388.5,245.2z M373.5,254.1l-0.2,1.3l18.6-2.2l1-7.2l-1.3,0.2l-0.8,6L373.5,254.1z M366.4,185l-0.2,1.3l9.7-1.2l0.8-5.7
	l11.1-1.3l0.2-1.3l-12.4,1.5l-0.8,5.7L366.4,185z M346.7,204.1l3-21.5l16-1.9l0.2-1.3l-17.3,2l-3.2,22.8L346.7,204.1z M332.2,239.7
	l0,0.3l6.7,5l20.9-2.5l12.8-10.9l3-22.3l-1.2-0.8l-3,22l-12.8,10.9l-20.9,2.5L332.2,239.7z M342.2,235.5l0.9-6.7l-1.3,0.2l-0.9,6.6
	L342.2,235.5z M336.6,208.8l0,0.2l5.7,4.5l21.2-2.3l0.2-1.2l-22.5,2.4L336.6,208.8z M409.7,181.1l9.7-1.2l1.8-13.1l-1.3,0.2
	l-1.7,11.8l-8.4,1L409.7,181.1z M28.6,257l16.5-14.6l0.3-2.4l-18,15.9l-4.7,33.5l1.3-0.2L28.6,257z M33.8,220.2l14.8-1.8l0.2-1.3
	l-16.1,1.9l-4.5,32.3l1.4-1.3L33.8,220.2z M49,240.3l8.4-8.3l2.3-16.3l-1.1-1.1l-2.3,16.3l-8.5,8.3L49,240.3z M13.4,297.4l-0.2,1.3
	l28.5-3.4l7.8-7.3l5.8-41.4l-1.1-1.1l-5.8,41.4l-7.8,7.3L13.4,297.4z M18.2,220.8l-0.2,1.3l4.8-0.6l0.2-1.3L18.2,220.8z
	 M227.8,177.5l-2.8,2.8l-2.5,0.3L221,182l5.1-0.6l2.8-2.8L227.8,177.5z"/>
</svg>
