<?xml version="1.0" encoding="utf-8"?>
<!-- Generator: Adobe Illustrator 21.1.0, SVG Export Plug-In . SVG Version: 6.00 Build 0)  -->
<svg version="1.1" id="Layer_1" xmlns="http://www.w3.org/2000/svg" xmlns:xlink="http://www.w3.org/1999/xlink" x="0px" y="0px"
	 viewBox="0 0 18.3 17.5" style="enable-background:new 0 0 18.3 17.5;" xml:space="preserve">
<style type="text/css">
	.st0{fill:#FFFFFF;}
	.st1{fill:none;stroke:#FFFFFF;stroke-width:2;stroke-linecap:round;stroke-miterlimit:10;}
</style>
<path class="st0" d="M8.2,9.1L6.4,7.3C6,6.9,5.4,6.9,5,7.3l0,0c-0.4,0.4-0.4,1,0,1.4l4.2,4.2l4.2-4.2c0.4-0.4,0.4-1,0-1.4l0,0
	c-0.4-0.4-1-0.4-1.4,0l-1.8,1.8V1c0-0.6-0.4-1-1-1h0c-0.6,0-1,0.4-1,1V9.1z"/>
<polyline class="st1" points="17.3,11.3 17.3,16.5 1,16.5 1,11.3 "/>
</svg>
