<?xml version="1.0" encoding="utf-8"?>
<!-- Generator: Adobe Illustrator 21.1.0, SVG Export Plug-In . SVG Version: 6.00 Build 0)  -->
<svg version="1.1" id="Capa_1" xmlns="http://www.w3.org/2000/svg" xmlns:xlink="http://www.w3.org/1999/xlink" x="0px" y="0px"
	 viewBox="0 0 200.8 200.8" style="enable-background:new 0 0 200.8 200.8;" xml:space="preserve">
<style type="text/css">
	.st0{fill:#004B93;}
</style>
<path class="st0" d="M96.4,0.1C43.9,2.1,1.6,44.9,0,97.4c-1.6,56.6,43.9,103.2,100.1,103.4c3.8,0,7.2-2.8,7.7-6.6
	c0.5-4.6-3-8.4-7.4-8.4c-48.6,0-87.9-40.9-85.3-90c2.3-43.3,37.3-78.3,80.6-80.6c49.2-2.6,90.1,36.6,90.1,85.3l0,22.7
	c0,8.5-6.5,15.8-15,16.2c-9,0.4-16.5-6.8-16.5-15.7v-22.3c0-30-24.1-55-54.2-54.8c-30.5,0.1-55.1,25.6-53.7,56.4
	c1.2,27.4,23.3,49.7,50.6,51.4c17.8,1.1,33.9-6.6,44.5-19.1c4.7,11.6,16.3,19.7,29.7,19.2c16.6-0.6,29.5-14.8,29.5-31.4v-22.5
	C200.8,43.7,153.6-2.1,96.4,0.1z M100.4,139.4c-21.5,0-39-17.5-39-39c0-21.5,17.5-39,39-39s39,17.5,39,39
	C139.4,121.9,121.9,139.4,100.4,139.4z"/>
</svg>
