<?xml version="1.0" encoding="utf-8"?>
<!-- Generator: Adobe Illustrator 21.1.0, SVG Export Plug-In . SVG Version: 6.00 Build 0)  -->
<svg version="1.1" id="Line_3" xmlns="http://www.w3.org/2000/svg" xmlns:xlink="http://www.w3.org/1999/xlink" x="0px" y="0px"
	 viewBox="0 0 32 28" style="enable-background:new 0 0 32 28;" xml:space="preserve">
<style type="text/css">
	.st0{fill:#004B93;}
</style>
<g id="_x31__19_">
	<g>
		<path class="st0" d="M28,15h-2V4c0-2.2-1.8-4-4-4H10C7.8,0,6,1.8,6,4c0,0,0,10.3,0,11H4c-2.2,0-4,1.8-4,4v2c0,2.2,1.8,4,4,4h2.1
			c0.4,1.7,2,3,3.9,3h12c1.9,0,3.4-1.3,3.9-3H28c2.2,0,4-1.8,4-4v-2C32,16.8,30.2,15,28,15z M8,4c0-1.1,0.9-2,2-2h12
			c1.1,0,2,0.9,2,2v11H8V4z M22,26H10c-1.1,0-2-0.9-2-2s0.9-2,2-2h12c1.1,0,2,0.9,2,2S23.1,26,22,26z M30,21c0,1.1-0.9,2-2,2h-2.1
			c-0.4-1.7-2-3-3.9-3H10c-1.9,0-3.4,1.3-3.9,3H4c-1.1,0-2-0.9-2-2v-2c0-1.1,0.9-2,2-2h24c1.1,0,2,0.9,2,2V21z"/>
	</g>
</g>
</svg>
