<?xml version="1.0" encoding="utf-8"?>
<!-- Generator: Adobe Illustrator 21.1.0, SVG Export Plug-In . SVG Version: 6.00 Build 0)  -->
<svg version="1.1" id="Layer_1" xmlns="http://www.w3.org/2000/svg" xmlns:xlink="http://www.w3.org/1999/xlink" x="0px" y="0px"
	 viewBox="0 0 60.1 60" style="enable-background:new 0 0 60.1 60;" xml:space="preserve">
<style type="text/css">
	.st0{fill:#FFFFFF;}
	.st1{fill:#3B5998;}
	.st2{fill-opacity:8.000000e-02;}
</style>
<path class="st0" d="M0,30C0,13.4,13.5,0,30,0s30,13.4,30,30S46.6,60,30,60S0,46.6,0,30z"/>
<path id="Path_18_" class="st1" d="M32.6,46.3V30h4.5l0.6-5.6h-5.1l0-2.8c0-1.5,0.1-2.3,2.2-2.3h2.8v-5.6h-4.5
	c-5.4,0-7.3,2.7-7.3,7.3v3.4h-3.4V30h3.4v16.3H32.6z"/>
<path id="reflec_28_" class="st2" d="M60.1,30c0,16.6-13.5,30-30,30c-6.2,0-11.9-1.8-16.6-5L47.8,5.8C55.3,11.3,60.1,20.1,60.1,30z"
	/>
</svg>
