<?xml version="1.0" encoding="utf-8"?>
<!-- Generator: Adobe Illustrator 21.1.0, SVG Export Plug-In . SVG Version: 6.00 Build 0)  -->
<svg version="1.1" id="Layer_1" xmlns="http://www.w3.org/2000/svg" xmlns:xlink="http://www.w3.org/1999/xlink" x="0px" y="0px"
	 viewBox="0 0 60.1 60" style="enable-background:new 0 0 60.1 60;" xml:space="preserve">
<style type="text/css">
	.st0{fill:#FFFFFF;}
	.st1{fill-opacity:8.000000e-02;}
	.st2{fill:url(#SVGID_1_);}
	.st3{fill:url(#SVGID_2_);}
	.st4{fill:url(#SVGID_3_);}
</style>
<g>
	<path class="st0" d="M0,30C0,13.4,13.5,0,30,0s30,13.4,30,30S46.6,60,30,60S0,46.6,0,30z"/>
	<path id="reflec_28_" class="st1" d="M60.1,30c0,16.6-13.5,30-30,30c-6.2,0-11.9-1.8-16.6-5L47.8,5.8C55.3,11.3,60.1,20.1,60.1,30z
		"/>
</g>
<g>
	
		<linearGradient id="SVGID_1_" gradientUnits="userSpaceOnUse" x1="30.05" y1="694.3754" x2="30.05" y2="657.8041" gradientTransform="matrix(1 0 0 1 0 -646)">
		<stop  offset="0" style="stop-color:#E09B3D"/>
		<stop  offset="0.3" style="stop-color:#C74C4D"/>
		<stop  offset="0.6" style="stop-color:#C21975"/>
		<stop  offset="1" style="stop-color:#7024C4"/>
	</linearGradient>
	<path class="st2" d="M37.5,11.5H22.6c-6.1,0-11,4.9-11,11v14.9c0,6.1,4.9,11,11,11h14.9c6.1,0,11-4.9,11-11V22.5
		C48.5,16.5,43.6,11.5,37.5,11.5z M44.8,37.5c0,4-3.3,7.3-7.3,7.3H22.6c-4,0-7.3-3.3-7.3-7.3V22.5c0-4,3.3-7.3,7.3-7.3h14.9
		c4,0,7.3,3.3,7.3,7.3L44.8,37.5L44.8,37.5z"/>
	
		<linearGradient id="SVGID_2_" gradientUnits="userSpaceOnUse" x1="30.05" y1="694.3754" x2="30.05" y2="657.8041" gradientTransform="matrix(1 0 0 1 0 -646)">
		<stop  offset="0" style="stop-color:#E09B3D"/>
		<stop  offset="0.3" style="stop-color:#C74C4D"/>
		<stop  offset="0.6" style="stop-color:#C21975"/>
		<stop  offset="1" style="stop-color:#7024C4"/>
	</linearGradient>
	<path class="st3" d="M30,20.4c-5.3,0-9.6,4.3-9.6,9.6s4.3,9.6,9.6,9.6s9.6-4.3,9.6-9.6S35.3,20.4,30,20.4z M30,35.8
		c-3.2,0-5.8-2.6-5.8-5.8s2.6-5.8,5.8-5.8c3.2,0,5.8,2.6,5.8,5.8C35.9,33.2,33.3,35.8,30,35.8z"/>
	
		<linearGradient id="SVGID_3_" gradientUnits="userSpaceOnUse" x1="39.6292" y1="694.3754" x2="39.6292" y2="657.8041" gradientTransform="matrix(1 0 0 1 0 -646)">
		<stop  offset="0" style="stop-color:#E09B3D"/>
		<stop  offset="0.3" style="stop-color:#C74C4D"/>
		<stop  offset="0.6" style="stop-color:#C21975"/>
		<stop  offset="1" style="stop-color:#7024C4"/>
	</linearGradient>
	<circle class="st4" cx="39.6" cy="20.5" r="2.3"/>
</g>
</svg>
