<?xml version="1.0" encoding="utf-8"?>
<!-- Generator: Adobe Illustrator 21.1.0, SVG Export Plug-In . SVG Version: 6.00 Build 0)  -->
<svg version="1.1" id="Capa_1" xmlns="http://www.w3.org/2000/svg" xmlns:xlink="http://www.w3.org/1999/xlink" x="0px" y="0px"
	 viewBox="0 0 167.3 217.1" style="enable-background:new 0 0 167.3 217.1;" xml:space="preserve">
<style type="text/css">
	.st0{fill:#004B93;}
</style>
<g>
	<path class="st0" d="M83.7,0C37.5,0,0,37.5,0,83.7c0,33,13.8,66.3,39.9,96.4c19.5,22.5,38.8,35.2,39.6,35.8
		c1.2,0.8,2.7,1.2,4.1,1.2c1.4,0,2.9-0.4,4.1-1.2c0.8-0.5,20.1-13.3,39.6-35.8c26.1-30.1,39.9-63.5,39.9-96.4
		C167.3,37.5,129.8,0,83.7,0z M83.7,200.4C68.3,188.9,15,144.8,15,83.7C15,45.8,45.8,15,83.7,15c37.9,0,68.7,30.8,68.7,68.7
		C152.3,144.8,99.1,188.9,83.7,200.4z"/>
	<path class="st0" d="M83.7,50.4c-18.3,0-33.2,14.9-33.2,33.2c0,18.3,14.9,33.2,33.2,33.2s33.2-14.9,33.2-33.2
		C116.9,65.3,102,50.4,83.7,50.4z M83.7,101.9c-10,0-18.2-8.2-18.2-18.2c0-10,8.2-18.2,18.2-18.2c10,0,18.2,8.2,18.2,18.2
		C101.9,93.7,93.7,101.9,83.7,101.9z"/>
</g>
</svg>
