<?xml version="1.0" encoding="utf-8"?>
<!-- Generator: Adobe Illustrator 21.1.0, SVG Export Plug-In . SVG Version: 6.00 Build 0)  -->
<svg version="1.1" id="Layer_1" xmlns="http://www.w3.org/2000/svg" xmlns:xlink="http://www.w3.org/1999/xlink" x="0px" y="0px"
	 viewBox="0 0 60.1 60" style="enable-background:new 0 0 60.1 60;" xml:space="preserve">
<style type="text/css">
	.st0{fill:#FFFFFF;}
	.st1{fill:#4099FF;}
	.st2{fill-opacity:8.000000e-02;}
</style>
<path class="st0" d="M0,30C0,13.4,13.5,0,30,0s30,13.4,30,30S46.6,60,30,60S0,46.6,0,30z"/>
<path id="Path_17_" class="st1" d="M29.3,23.9l0.1,1l-1-0.1c-3.8-0.5-7.2-2.1-10-4.9l-1.4-1.4l-0.4,1c-0.8,2.3-0.3,4.7,1.3,6.3
	c0.8,0.9,0.7,1-0.8,0.5c-0.5-0.2-0.9-0.3-1-0.2c-0.1,0.1,0.4,2.1,0.8,2.8c0.5,1.1,1.7,2.1,2.9,2.7l1,0.5l-1.2,0
	c-1.2,0-1.2,0-1.1,0.5c0.4,1.4,2.1,2.8,3.9,3.5l1.3,0.4l-1.1,0.7c-1.7,1-3.7,1.5-5.6,1.6c-0.9,0-1.7,0.1-1.7,0.2
	c0,0.2,2.6,1.4,4,1.9c4.5,1.4,9.8,0.8,13.8-1.6c2.8-1.7,5.7-5,7-8.2c0.7-1.7,1.4-4.9,1.4-6.4c0-1,0.1-1.1,1.2-2.3
	c0.7-0.7,1.3-1.4,1.5-1.6c0.2-0.4,0.2-0.4-0.9,0c-1.8,0.6-2,0.6-1.2-0.4c0.7-0.7,1.4-1.9,1.4-2.3c0-0.1-0.3,0-0.7,0.2
	c-0.4,0.2-1.2,0.5-1.8,0.7l-1.1,0.4l-1-0.7c-0.6-0.4-1.4-0.8-1.8-0.9c-1.1-0.3-2.7-0.3-3.7,0.1C30.8,18.7,29.1,21.2,29.3,23.9z"/>
<path id="reflec_27_" class="st2" d="M60.1,30c0,16.6-13.5,30-30,30c-6.2,0-11.9-1.8-16.6-5L47.8,5.8C55.3,11.3,60.1,20.1,60.1,30z"
	/>
</svg>
